# xmcd
# 
# Track frame offsets:
#     150
#     12537
#     26862
#     40850
#     51377
#     64780
#     78140
#     90825
#     102960
#     115650
#     129260
#     141687
#     154085
#     166687
#     177927
#     188150
#     200512
#     213240
#     225727
#     238677
# 
# Disc length: 3344
# 
# Revision: 5
# Processed by: cddbd v1.5.2PL0 Copyright (c) Steve Scherf et al.
# Submitted via: fre:ac v1.0.31
# 
DISCID=0a0d0e14
DTITLE=Columbia Blues - John Lee Hooker Graveyard Blues [Specialty SPCD-7018]
DYEAR=1992
DGENRE=Blues
TTITLE0=War Is Over (Goodbye California) [Specialty 2127]
TTITLE1=Henry's Swing Club [SP 2127]
TTITLE2=Alberta [SP 2125]
TTITLE3=Hastings Street Boogie [SP 2127]
TTITLE4=Build Myself A Cave [SP 2125]
TTITLE5=Momma Poppa Boogie [SP 2125]
TTITLE6=Graveyard Blues [SP 2125]
TTITLE7=Burnin' Hell [Sensation 21, SP 2125]
TTITLE8=Sailing Blues [SP 2125]
TTITLE9=Black Cat Blues [SP 2125]
TTITLE10=Miss Sadie Mae [Sensation 21, SP 2127]
TTITLE11=Canal Street Blues [Sensation 26, SP 2127]
TTITLE12=Huckle Up Baby [Sensation 26, SP 2125]
TTITLE13=Goin' Down Highway 51 [Sensation 30, SP 2127]
TTITLE14=Sail On, Little Girl, Sail On [SP 2127]
TTITLE15=Alberta (Part 2) [SP 2127]
TTITLE16=My Baby's Got Something [Sensation 33, SP 2127]
TTITLE17=Boogie Chillen #2 [Sensation 34, SP 2125]
TTITLE18=21 Boogie [SP 2127]
TTITLE19=Rollin' Blues [SP 2127]
EXTD=
EXTT0=
EXTT1=
EXTT2=
EXTT3=
EXTT4=
EXTT5=
EXTT6=
EXTT7=
EXTT8=
EXTT9=
EXTT10=
EXTT11=
EXTT12=
EXTT13=
EXTT14=
EXTT15=
EXTT16=
EXTT17=
EXTT18=
EXTT19=
PLAYORDER=
